<mxfile host="app.diagrams.net" modified="2020-10-15T07:11:16.451Z" agent="5.0 (Windows NT 10.0; Win64; x64) AppleWebKit/537.36 (KHTML, like Gecko) Chrome/86.0.4240.75 Safari/537.36" etag="KqwiRXDJmFOZwE_4kAHR" version="13.8.0" type="github">
  <diagram id="eo-lCHlrdRHTa05kxo-I" name="Page-1">
    <mxGraphModel dx="1422" dy="762" grid="1" gridSize="10" guides="1" tooltips="1" connect="1" arrows="1" fold="1" page="1" pageScale="1" pageWidth="827" pageHeight="1169" math="0" shadow="0">
      <root>
        <mxCell id="0" />
        <mxCell id="1" parent="0" />
        <mxCell id="DxfzpP4aNTXdEqOJoYWH-1" value="活动小程序" style="rounded=0;whiteSpace=wrap;html=1;fillColor=#8CFFD5;" vertex="1" parent="1">
          <mxGeometry x="50" y="70" width="120" height="60" as="geometry" />
        </mxCell>
        <mxCell id="DxfzpP4aNTXdEqOJoYWH-2" value="H5应用" style="rounded=0;whiteSpace=wrap;html=1;fillColor=#B9E0A5;" vertex="1" parent="1">
          <mxGeometry x="180" y="70" width="120" height="60" as="geometry" />
        </mxCell>
        <mxCell id="DxfzpP4aNTXdEqOJoYWH-3" value="App应用" style="rounded=0;whiteSpace=wrap;html=1;fillColor=#FFF2CC;" vertex="1" parent="1">
          <mxGeometry x="320" y="70" width="120" height="60" as="geometry" />
        </mxCell>
        <mxCell id="DxfzpP4aNTXdEqOJoYWH-4" value="活动助手" style="rounded=0;whiteSpace=wrap;html=1;fillColor=#FFF4C3;" vertex="1" parent="1">
          <mxGeometry x="460" y="70" width="120" height="60" as="geometry" />
        </mxCell>
        <mxCell id="DxfzpP4aNTXdEqOJoYWH-5" value="。。。" style="rounded=0;whiteSpace=wrap;html=1;fillColor=#F8CECC;" vertex="1" parent="1">
          <mxGeometry x="600" y="70" width="120" height="60" as="geometry" />
        </mxCell>
        <mxCell id="DxfzpP4aNTXdEqOJoYWH-7" value="数据网关" style="rounded=1;whiteSpace=wrap;html=1;fillColor=#CDA2BE;" vertex="1" parent="1">
          <mxGeometry x="50" y="160" width="670" height="60" as="geometry" />
        </mxCell>
        <mxCell id="DxfzpP4aNTXdEqOJoYWH-8" value="统一用户画像库" style="rounded=1;whiteSpace=wrap;html=1;fillColor=#33FFFF;" vertex="1" parent="1">
          <mxGeometry x="50" y="240" width="670" height="60" as="geometry" />
        </mxCell>
        <mxCell id="DxfzpP4aNTXdEqOJoYWH-9" value="" style="shape=flexArrow;endArrow=classic;html=1;" edge="1" parent="1">
          <mxGeometry width="50" height="50" relative="1" as="geometry">
            <mxPoint x="384.5" y="320" as="sourcePoint" />
            <mxPoint x="385" y="370" as="targetPoint" />
          </mxGeometry>
        </mxCell>
        <mxCell id="DxfzpP4aNTXdEqOJoYWH-10" value="数据检索" style="rounded=1;whiteSpace=wrap;html=1;fillColor=#00CCCC;" vertex="1" parent="1">
          <mxGeometry x="45" y="380" width="670" height="60" as="geometry" />
        </mxCell>
        <mxCell id="DxfzpP4aNTXdEqOJoYWH-11" value="壹点编辑后台&lt;br&gt;m.qiluyidan.mobi" style="rounded=1;whiteSpace=wrap;html=1;fillColor=#00CCCC;strokeColor=#D5E8D4;" vertex="1" parent="1">
          <mxGeometry x="45" y="600" width="120" height="60" as="geometry" />
        </mxCell>
        <mxCell id="DxfzpP4aNTXdEqOJoYWH-12" value="壹点微服务&lt;br&gt;gateway" style="rounded=1;whiteSpace=wrap;html=1;fillColor=#B9E0A5;" vertex="1" parent="1">
          <mxGeometry x="180" y="600" width="120" height="60" as="geometry" />
        </mxCell>
        <mxCell id="DxfzpP4aNTXdEqOJoYWH-13" value="壹点接口系统&lt;br&gt;api.qluyidan.com" style="rounded=1;whiteSpace=wrap;html=1;fillColor=#E1D5E7;" vertex="1" parent="1">
          <mxGeometry x="320" y="600" width="120" height="60" as="geometry" />
        </mxCell>
        <mxCell id="DxfzpP4aNTXdEqOJoYWH-14" value="壹点网 晚报网&lt;br&gt;www.qlwb.com" style="rounded=1;whiteSpace=wrap;html=1;fillColor=#D4E1F5;" vertex="1" parent="1">
          <mxGeometry x="460" y="600" width="120" height="60" as="geometry" />
        </mxCell>
        <mxCell id="DxfzpP4aNTXdEqOJoYWH-15" value="OpenResty 日志格式化" style="rounded=1;whiteSpace=wrap;html=1;fillColor=#FFE599;" vertex="1" parent="1">
          <mxGeometry x="45" y="690" width="550" height="60" as="geometry" />
        </mxCell>
        <mxCell id="DxfzpP4aNTXdEqOJoYWH-16" value="Kafka 高吞吐量日志传输" style="rounded=1;whiteSpace=wrap;html=1;fillColor=#66FFFF;" vertex="1" parent="1">
          <mxGeometry x="45" y="770" width="550" height="60" as="geometry" />
        </mxCell>
        <mxCell id="DxfzpP4aNTXdEqOJoYWH-17" value="Flume-NG 日志落盘" style="rounded=1;whiteSpace=wrap;html=1;fillColor=#FFCCCC;" vertex="1" parent="1">
          <mxGeometry x="45" y="850" width="175" height="130" as="geometry" />
        </mxCell>
        <mxCell id="DxfzpP4aNTXdEqOJoYWH-18" value="Hadoop hdfs 大数据日志存储" style="rounded=1;whiteSpace=wrap;html=1;fillColor=#FF8000;" vertex="1" parent="1">
          <mxGeometry x="42.5" y="990" width="560" height="60" as="geometry" />
        </mxCell>
        <mxCell id="DxfzpP4aNTXdEqOJoYWH-19" value="Spark 日志分析" style="rounded=1;whiteSpace=wrap;html=1;fillColor=#99FF33;" vertex="1" parent="1">
          <mxGeometry x="350" y="860" width="110" height="120" as="geometry" />
        </mxCell>
        <mxCell id="DxfzpP4aNTXdEqOJoYWH-20" value="Durid&lt;br&gt;数据聚合可视化" style="rounded=1;whiteSpace=wrap;html=1;fillColor=#FF66B3;" vertex="1" parent="1">
          <mxGeometry x="475" y="860" width="120" height="120" as="geometry" />
        </mxCell>
        <mxCell id="DxfzpP4aNTXdEqOJoYWH-22" value="Hive 日志查询" style="rounded=1;whiteSpace=wrap;html=1;fillColor=#FFFF66;" vertex="1" parent="1">
          <mxGeometry x="230" y="860" width="110" height="120" as="geometry" />
        </mxCell>
      </root>
    </mxGraphModel>
  </diagram>
</mxfile>
